<?xml version="1.0" encoding="utf-8"?>
<!-- Generator: Adobe Illustrator 19.0.0, SVG Export Plug-In . SVG Version: 6.00 Build 0)  -->
<svg version="1.1" id="Layer_1" xmlns="http://www.w3.org/2000/svg" xmlns:xlink="http://www.w3.org/1999/xlink" x="0px" y="0px"
	 viewBox="0 0 500 500" style="enable-background:new 0 0 500 500;" xml:space="preserve">
<style type="text/css">
	.st0{fill:#368FB9;}
	.st1{fill:#FFFFFF;}
</style>
<g id="XMLID_1_">
	<path id="XMLID_2_" class="st0" d="M250,67.5C149.2,67.5,67.5,149.2,67.5,250S149.2,432.5,250,432.5S432.5,350.8,432.5,250
		S350.8,67.5,250,67.5"/>
	<path id="XMLID_3_" class="st1" d="M357.4,315.7c-11.3,2.7-17,5.1-30.9,14.2c-21.8,14.1-45.6,20.6-45.6,20.6s-2,3-7.7,4.3
		c-9.9,2.4-47,4.4-50.4,4.5c-9.1,0.1-14.7-2.3-16.2-6.1c-4.7-11.3,6.8-16.2,6.8-16.2s-2.5-1.6-4-3c-1.3-1.3-2.7-4-3.2-3
		c-1.8,4.3-2.7,14.8-7.4,19.5c-6.5,6.6-18.7,4.4-26,0.6c-8-4.2,0.6-14.2,0.6-14.2s-4.3,2.5-7.8-2.7c-3.1-4.8-6-13-5.2-23
		c0.8-11.5,13.7-22.6,13.7-22.6s-2.3-17,5.1-34.4c6.7-15.9,24.7-28.6,24.7-28.6s-15.1-16.8-9.5-31.8c3.7-9.9,5.1-9.8,6.3-10.2
		c4.2-1.6,8.3-3.4,11.3-6.7c15.1-16.3,34.5-13.2,34.5-13.2s9.2-27.8,17.6-22.4c2.6,1.7,12,22.5,12,22.5s10-5.8,11.1-3.7
		c6.1,11.8,6.8,34.2,4.1,47.9c-4.5,22.5-15.8,34.7-20.3,42.3c-1.1,1.8,12.1,7.3,20.4,30.4c7.7,21.1,0.8,38.8,2,40.7
		c0.2,0.4,0.3,0.5,0.3,0.5s8.8,0.7,26.5-10.2c9.4-5.8,20.6-12.4,33.4-12.5C366.1,299,366.7,313.4,357.4,315.7z M374.2,305.3
		c-1.3-10-9.7-16.9-20.6-16.8c-16.2,0.2-29.8,8.6-38.8,14.2c-3.5,2.2-6.6,3.8-9.2,5c0.6-8.2,0.1-18.9-4.2-30.7
		c-5.1-14.1-12-22.8-17-27.8c5.7-8.3,13.5-20.4,17.2-39.2c3.2-16,2.2-40.9-5.1-54.8c-1.5-2.8-3.9-4.9-7-5.7
		c-1.3-0.4-3.7-1.1-8.4,0.3c-7.1-14.7-9.6-16.3-11.5-17.5c-3.9-2.5-8.6-3.1-13-1.5c-5.8,2.1-10.9,7.8-15.6,17.8
		c-0.7,1.5-1.3,2.9-1.9,4.3c-8.9,0.6-23,3.9-34.9,16.8c-1.5,1.6-4.4,2.8-7.4,3.9h0.1c-6.2,2.2-9,7.3-12.5,16.4
		c-4.8,12.8,0.1,25.4,5,33.6c-6.6,5.9-15.4,15.4-20.1,26.4c-5.8,13.7-6.4,27.1-6.2,34.3c-4.9,5.2-12.5,15-13.4,26
		c-1.1,15.4,4.4,25.8,6.9,29.6c0.7,1.1,1.5,2,2.3,3c-0.3,1.9-0.4,3.9,0.1,6.1c0.9,4.9,4,8.9,8.7,11.5c9.3,4.9,22.3,7,32.3,2
		c3.6,3.8,10.1,7.5,22.1,7.5h0.7c3,0,41.5-2,52.7-4.8c5-1.2,8.5-3.3,10.7-5.2c7.2-2.3,27.1-9,45.8-21.1
		c13.2-8.6,17.8-10.4,27.7-12.8C369.4,323.7,375.4,315,374.2,305.3z"/>
</g>
</svg>
